<svg xmlns="http://www.w3.org/2000/svg" width="800" height="800" viewBox="0 0 256 256" xml:space="preserve">
  <path d="M36.042 238.86a27.48 27.48 0 0 1-24.172-14.387 27.48 27.48 0 0 1 1.12-28.107l91.958-141.389C110.04 47.146 118.658 42.47 128 42.47s17.96 4.676 23.053 12.507l91.958 141.39a27.47 27.47 0 0 1 1.119 28.106 27.48 27.48 0 0 1-24.172 14.387z" style="fill:#6cb0cf"/>
  <path d="M234.628 201.819 142.67 60.429a17.5 17.5 0 0 0-29.34 0l-91.958 141.39a17.5 17.5 0 0 0 14.67 27.041h183.917a17.497 17.497 0 0 0 14.669-27.041M68.299 193.86 128 102.067l59.7 91.793z" style="fill:#17658a"/>
</svg>
